<?xml version="1.0" encoding="utf-8"?>
<!-- Generator: Adobe Illustrator 26.0.1, SVG Export Plug-In . SVG Version: 6.00 Build 0)  -->
<svg version="1.1" id="Layer_1" xmlns="http://www.w3.org/2000/svg" xmlns:xlink="http://www.w3.org/1999/xlink" x="0px" y="0px"
	 viewBox="0 0 870 150" style="enable-background:new 0 0 870 150;" xml:space="preserve">
<style type="text/css">
	.st0{fill:url(#SVGID_1_);}
	.st1{fill:url(#SVGID_00000080900279132236631850000003393400947363457924_);}
	.st2{fill:url(#SVGID_00000044886986932842147190000012083853281810966440_);}
	.st3{fill:#011C43;}
	.st4{fill:url(#SVGID_00000006700963684173838740000014657069576305860783_);}
	.st5{fill:url(#SVGID_00000029028442705928814390000004115964331924215941_);}
	.st6{fill:url(#SVGID_00000144303658385276793670000014629239869075577738_);}
	.st7{fill:url(#SVGID_00000133509576839904086870000008999181725792125098_);}
	.st8{fill:url(#SVGID_00000036221553759553192240000007814220787439159230_);}
</style>
<g>
	<g>
		<linearGradient id="SVGID_1_" gradientUnits="userSpaceOnUse" x1="76.8211" y1="34.9314" x2="150.8319" y2="127.5557">
			<stop  offset="0" style="stop-color:#325EB4"/>
			<stop  offset="1" style="stop-color:#4BB2C9"/>
		</linearGradient>
		<path class="st0" d="M130.11,137.8c-3.02,0.58-6.32,0.21-9.76-0.93c0.53-0.02,17.47-1.13,16.36-28.45v-0.01
			c-0.14-9.7-5.72-22.96-9.26-32.6c-4.72-12.82-14.42-27.39-24.77-34.69c-10.43-7.35-18.74-2.54-18.74-2.54
			C73.25,43.09,64.7,57.34,64.14,58.31c-0.68-0.63-1.38-1.26-2.08-1.88c19.31-39.6,45.72-22.13,45.72-22.13
			c28.95,14.98,42.93,59.84,42.93,59.84C159.95,124.87,145.21,134.88,130.11,137.8z"/>
		
			<linearGradient id="SVGID_00000024715637243587921790000007763170237568261539_" gradientUnits="userSpaceOnUse" x1="-16.8208" y1="88.1495" x2="101.8953" y2="173.4714">
			<stop  offset="0" style="stop-color:#F58616"/>
			<stop  offset="1" style="stop-color:#F14B20"/>
		</linearGradient>
		<path style="fill:url(#SVGID_00000024715637243587921790000007763170237568261539_);" d="M24.49,118.87
			c1.34,0.51,2.67,0.77,3.99,0.8C27.22,119.68,25.89,119.46,24.49,118.87z"/>
		
			<linearGradient id="SVGID_00000144326756543883693510000003252628214073579405_" gradientUnits="userSpaceOnUse" x1="31.8859" y1="70.8365" x2="105.8968" y2="163.4609">
			<stop  offset="0" style="stop-color:#325EB4"/>
			<stop  offset="1" style="stop-color:#4BB2C9"/>
		</linearGradient>
		<path style="fill:url(#SVGID_00000144326756543883693510000003252628214073579405_);" d="M57.44,70.23
			c-7.19,15.05-14.16,37.56-18.25,42.35c4.05-4.99,10.11-26.19,17.27-43.47L57.44,70.23z"/>
		<circle class="st3" cx="51.22" cy="22.84" r="10.91"/>
		
			<linearGradient id="SVGID_00000010272296862500212680000009165033887967872942_" gradientUnits="userSpaceOnUse" x1="4.1223" y1="59.0096" x2="122.8383" y2="144.3315">
			<stop  offset="0" style="stop-color:#F58616"/>
			<stop  offset="1" style="stop-color:#F14B20"/>
		</linearGradient>
		<path style="fill:url(#SVGID_00000010272296862500212680000009165033887967872942_);" d="M120.35,136.87c-0.01,0-0.01,0-0.01,0
			c-17.46-5.76-39.03-31-51.11-50.08C54.76,63.93,43.51,55.95,43.51,55.95C8.39,32.47,7.33,71.88,7.33,71.88
			c-1.72,21.83,6.66,35.95,6.66,35.95c3.57,6.29,7.06,9.54,10.23,10.94c-9.69-3.85-19.4-20.06-20.54-45.07
			C1.96,35.57,31.38,41.05,31.38,41.05c11.2,0.97,21.57,7.34,30.69,15.38c0.7,0.62,1.39,1.24,2.08,1.88
			c11.4,10.58,20.71,23.42,27.09,30.77c11.64,13.4,19.09,20.69,27.86,27.12c4.96,3.59,8.59,4.09,11.1,3.53
			c3.2-0.7,4.59-3.13,4.59-3.13c1.42-2.16,1.96-4.97,1.93-8.18C137.82,135.73,120.89,136.84,120.35,136.87z"/>
	</g>
	<g>
		<path class="st3" d="M218.01,81.28l0.33,1.34c0.89,3.8,2.4,7.17,4.52,10.13c2.12,2.96,4.6,5.47,7.45,7.53
			c2.85,2.07,5.91,3.66,9.21,4.77c3.29,1.12,6.5,1.67,9.62,1.67c6.03,0,11.32-1.42,15.9-4.27c4.57-2.85,8.48-6.78,11.72-11.8
			l15.9,7.2c-2.68,4.8-5.75,8.84-9.21,12.14c-3.46,3.29-7.11,5.97-10.96,8.03c-3.85,2.07-7.81,3.57-11.88,4.52
			c-4.07,0.95-8.12,1.42-12.13,1.42c-6.47,0-12.67-1.28-18.58-3.85c-5.92-2.57-11.08-6.08-15.48-10.54
			c-4.41-4.46-7.92-9.62-10.54-15.48c-2.62-5.86-3.93-12.02-3.93-18.49c0-6.8,1.26-13.22,3.77-19.25
			c2.51-6.03,5.97-11.32,10.38-15.9c4.41-4.57,9.59-8.2,15.56-10.88c5.97-2.68,12.41-4.02,19.33-4.02c6.92,0,13.36,1.28,19.33,3.85
			c5.97,2.57,11.19,6.08,15.65,10.55c4.46,4.46,7.95,9.68,10.46,15.65c2.51,5.97,3.77,12.36,3.77,19.16c0,0.67-0.03,1.73-0.08,3.18
			c-0.06,1.45-0.08,2.57-0.08,3.35H218.01z M278.43,62.53c-1-2.57-2.4-5.02-4.18-7.36c-1.79-2.34-3.91-4.44-6.36-6.28
			c-2.46-1.84-5.25-3.32-8.37-4.44c-3.13-1.11-6.59-1.67-10.38-1.67c-6.14,0-11.94,1.76-17.41,5.27
			c-5.47,3.51-9.49,8.45-12.05,14.81l-0.33,1h59.58L278.43,62.53z"/>
		<path class="st3" d="M313.24,25.71h17.24v7.87l1.84-1.34c3.12-2.12,6.64-3.77,10.54-4.94c3.9-1.17,7.7-1.76,11.38-1.76
			c5.69,0,11.02,1.12,15.98,3.35c4.96,2.23,9.32,5.22,13.05,8.95c3.74,3.74,6.67,8.12,8.79,13.14c2.12,5.02,3.18,10.38,3.18,16.07
			v56.9h-17.24v-56.9c0-3.35-0.61-6.5-1.84-9.46c-1.23-2.95-2.93-5.52-5.1-7.7c-2.18-2.18-4.69-3.88-7.53-5.1
			c-2.84-1.23-5.94-1.84-9.29-1.84c-3.24,0-6.31,0.61-9.21,1.84c-2.9,1.23-5.44,2.93-7.62,5.1c-2.18,2.18-3.88,4.74-5.1,7.7
			c-1.23,2.96-1.84,6.11-1.84,9.46v56.9h-17.24V25.71z"/>
		<path class="st3" d="M406.46,27.89h14.56l0.17-1c1.11-4.57,2.95-8.67,5.52-12.3c2.57-3.62,5.75-6.55,9.54-8.79
			c2.79-1.78,5.58-3.01,8.37-3.68c2.79-0.67,6.19-1,10.21-1h5.86v17.57h-5.86c-2.57,0-5.27,0.59-8.12,1.76
			c-2.85,1.17-5.05,3.21-6.61,6.11l-0.67,1.34h17.57v17.57h-19.08v78.5h-17.57v-78.5h-13.89V27.89z"/>
		<path class="st3" d="M485.29,25.88l28.45,64.77l24.44-64.77h18.74L510.4,148.89h-18.74l13.05-34.81l-38.49-88.2H485.29z"/>
		<path class="st3" d="M641.28,58.85c-3.24-5.02-7.14-8.93-11.72-11.72c-4.58-2.79-9.87-4.18-15.9-4.18
			c-3.57-0.11-7.25,0.53-11.05,1.92c-3.79,1.4-7.23,3.49-10.29,6.28c-3.07,2.79-5.58,6.17-7.53,10.13
			c-1.95,3.96-2.93,8.45-2.93,13.47c0,4.35,0.84,8.48,2.51,12.39c1.67,3.91,3.93,7.31,6.78,10.21c2.85,2.9,6.19,5.19,10.04,6.86
			c3.85,1.67,8,2.51,12.47,2.51c6.03,0,11.32-1.39,15.9-4.18c4.57-2.79,8.48-6.69,11.72-11.72l15.9,7.2
			c-3.01,5.13-6.36,9.37-10.04,12.72c-3.68,3.35-7.48,6-11.38,7.95c-3.91,1.95-7.84,3.32-11.8,4.1c-3.96,0.78-7.62,1.17-10.96,1.17
			c-6.47,0-12.67-1.28-18.58-3.85c-5.92-2.57-11.08-6.03-15.48-10.38c-4.41-4.35-7.92-9.46-10.54-15.31
			c-2.62-5.86-3.93-12.13-3.93-18.83c0-6.92,1.26-13.39,3.77-19.42c2.51-6.02,5.97-11.3,10.38-15.82c4.41-4.52,9.6-8.09,15.57-10.71
			c5.97-2.62,12.47-3.93,19.5-3.93c4.02,0,8.12,0.53,12.3,1.59c4.18,1.06,8.17,2.68,11.97,4.85c3.79,2.18,7.36,4.88,10.71,8.12
			c3.35,3.24,6.19,7.03,8.54,11.38L641.28,58.85z"/>
		<path class="st3" d="M719.27,22.7c6.92,0,13.42,1.31,19.5,3.93c6.08,2.62,11.38,6.19,15.9,10.71c4.52,4.52,8.09,9.82,10.71,15.9
			c2.62,6.08,3.93,12.58,3.93,19.5c0,6.92-1.31,13.47-3.93,19.67c-2.62,6.19-6.19,11.63-10.71,16.32c-4.52,4.69-9.82,8.4-15.9,11.13
			c-6.08,2.74-12.58,4.1-19.5,4.1c-6.92,0-13.42-1.36-19.5-4.1c-6.08-2.73-11.38-6.44-15.9-11.13c-4.52-4.69-8.09-10.13-10.71-16.32
			c-2.62-6.19-3.93-12.75-3.93-19.67c0-6.92,1.31-13.42,3.93-19.5c2.62-6.08,6.19-11.38,10.71-15.9c4.52-4.52,9.82-8.09,15.9-10.71
			C705.85,24.01,712.35,22.7,719.27,22.7z M751.74,72.91c0-4.46-0.87-8.67-2.59-12.64c-1.73-3.96-4.1-7.39-7.11-10.29
			c-3.01-2.9-6.47-5.21-10.38-6.95c-3.91-1.73-8.03-2.59-12.39-2.59c-5.13,0-9.71,1-13.72,3.01c-4.02,2.01-7.45,4.55-10.29,7.61
			c-2.85,3.07-5,6.53-6.44,10.38c-1.45,3.85-2.12,7.62-2.01,11.3c-0.11,3.68,0.53,7.45,1.92,11.3c1.39,3.85,3.49,7.34,6.28,10.46
			c2.79,3.12,6.25,5.69,10.38,7.7c4.13,2.01,8.76,3.01,13.89,3.01c4.57,0,8.84-0.86,12.8-2.59c3.96-1.73,7.39-4.07,10.29-7.03
			c2.9-2.95,5.19-6.39,6.86-10.29C750.9,81.39,751.74,77.26,751.74,72.91z"/>
		<path class="st3" d="M784.38,25.71h17.24v7.87l1.84-1.34c3.12-2.12,6.64-3.77,10.55-4.94c3.9-1.17,7.7-1.76,11.38-1.76
			c5.69,0,11.02,1.12,15.98,3.35c4.96,2.23,9.32,5.22,13.05,8.95c3.74,3.74,6.67,8.12,8.79,13.14c2.12,5.02,3.18,10.38,3.18,16.07
			v56.9h-17.24v-56.9c0-3.35-0.61-6.5-1.84-9.46c-1.23-2.95-2.93-5.52-5.1-7.7c-2.18-2.18-4.69-3.88-7.53-5.1
			c-2.85-1.23-5.94-1.84-9.29-1.84c-3.24,0-6.3,0.61-9.21,1.84c-2.9,1.23-5.44,2.93-7.61,5.1c-2.18,2.18-3.88,4.74-5.11,7.7
			c-1.23,2.96-1.84,6.11-1.84,9.46v56.9h-17.24V25.71z"/>
	</g>
</g>
</svg>
